<?xml version="1.0" encoding="utf-8"?>
<!DOCTYPE svg PUBLIC "-//W3C//DTD SVG 1.1//EN" "http://www.w3.org/Graphics/SVG/1.1/DTD/svg11.dtd">
<svg version="1.1" id="Layer_1" xmlns="http://www.w3.org/2000/svg" xmlns:xlink="http://www.w3.org/1999/xlink" x="0px" y="0px"
	 viewBox="0 0 2561.876 1446.102" enable-background="new 0 0 2561.876 1446.102" xml:space="preserve">
<rect x="0" y="0" width="2561.876" height="1446.102"/>
<g>
	<path fill="#FFFFFF" d="M181.245,114.549H84.806V97.075l37.859-37.635c6.197-6.122,11.238-11.425,15.121-15.905
		c3.882-4.48,6.906-8.569,9.073-12.265c2.165-3.696,3.621-7.186,4.369-10.473c0.746-3.285,1.12-6.833,1.12-10.641
		c0-3.584-0.487-7-1.456-10.249c-0.972-3.249-2.464-6.104-4.48-8.569c-2.016-2.464-4.631-4.405-7.841-5.824
		c-3.211-1.418-7.057-2.128-11.537-2.128c-6.199,0-11.836,1.383-16.914,4.145c-5.079,2.763-9.745,6.348-14.001,10.753L85.366-14.598
		c5.525-5.824,11.891-10.49,19.098-14.001c7.205-3.509,15.586-5.264,25.146-5.264c6.497,0,12.414,0.971,17.753,2.912
		c5.338,1.942,9.949,4.743,13.833,8.4c3.882,3.66,6.889,8.14,9.017,13.441c2.128,5.303,3.192,11.276,3.192,17.921
		c0,5.6-0.748,10.791-2.24,15.569c-1.495,4.779-3.752,9.54-6.776,14.281c-3.024,4.743-6.833,9.652-11.425,14.729
		c-4.592,5.079-10.024,10.641-16.297,16.689L110.12,95.956h71.125V114.549z"/>
	<path fill="#FFFFFF" d="M178.445,345.355c0,6.423-1.308,12.453-3.92,18.09c-2.615,5.639-6.535,10.567-11.761,14.785
		c-5.228,4.219-11.799,7.543-19.713,9.969c-7.916,2.426-17.137,3.64-27.666,3.64c-5.825,0-11.052-0.187-15.682-0.56
		c-4.631-0.375-8.96-0.859-12.993-1.456v-17.474c4.629,0.823,9.521,1.457,14.673,1.904c5.152,0.448,10.417,0.672,15.793,0.672
		c7.317,0,13.57-0.653,18.761-1.96c5.189-1.306,9.426-3.192,12.713-5.656c3.285-2.464,5.674-5.45,7.168-8.961
		c1.493-3.509,2.24-7.466,2.24-11.873c0-4.032-0.896-7.541-2.688-10.529c-1.792-2.985-4.312-5.488-7.561-7.504
		c-3.248-2.016-7.132-3.528-11.649-4.537c-4.519-1.008-9.465-1.512-14.841-1.512h-16.689v-16.018h16.913
		c4.405,0,8.418-0.578,12.041-1.736c3.621-1.157,6.721-2.818,9.297-4.984c2.576-2.165,4.554-4.834,5.937-8.009
		c1.381-3.173,2.072-6.776,2.072-10.809c0-7.84-2.391-13.553-7.169-17.137c-4.779-3.584-11.799-5.376-21.058-5.376
		c-4.928,0-10.007,0.487-15.233,1.456c-5.228,0.971-10.828,2.428-16.802,4.369v-17.025c2.538-0.896,5.246-1.698,8.121-2.408
		c2.874-0.709,5.749-1.306,8.625-1.792c2.874-0.485,5.73-0.857,8.569-1.12c2.837-0.261,5.562-0.392,8.176-0.392
		c7.766,0,14.598,0.84,20.498,2.52c5.898,1.68,10.826,4.088,14.785,7.225c3.957,3.136,6.944,6.944,8.96,11.425
		s3.024,9.521,3.024,15.121c0,8.364-2.147,15.384-6.44,21.058c-4.295,5.676-10.175,10.193-17.642,13.553
		c3.808,0.599,7.561,1.792,11.257,3.584c3.696,1.792,7.018,4.088,9.969,6.889c2.949,2.8,5.338,6.104,7.168,9.913
		C177.53,336.506,178.445,340.726,178.445,345.355z"/>
	<path fill="#FFFFFF" d="M188.526,632.725h-24.978v32.371H143.61v-32.371H73.157v-17.137l62.389-96.888h28.002v96.888h24.978
		V632.725z M143.61,537.517l-50.964,78.07h50.964V537.517z"/>
	<path fill="#FFFFFF" d="M177.549,893.549c0,7.243-1.568,13.852-4.704,19.825c-3.136,5.975-7.449,11.108-12.937,15.401
		c-5.488,4.295-11.968,7.636-19.434,10.024c-7.468,2.39-15.533,3.585-24.194,3.585c-2.167,0-4.5-0.057-7-0.168
		c-2.503-0.112-4.984-0.263-7.449-0.448c-2.464-0.188-4.873-0.393-7.225-0.616c-2.352-0.225-4.463-0.486-6.329-0.784v-17.697
		c4.032,0.971,8.642,1.68,13.833,2.128c5.189,0.448,10.435,0.672,15.737,0.672c5.973,0,11.35-0.709,16.129-2.128
		c4.778-1.418,8.849-3.453,12.209-6.104c3.36-2.649,5.937-5.861,7.729-9.633c1.792-3.77,2.688-8.009,2.688-12.713
		c0-9.109-3.268-15.737-9.801-19.882c-6.535-4.145-15.925-6.216-28.17-6.216H90.854v-74.822h78.854v17.025h-60.485v41.107h12.769
		c7.018,0,13.851,0.635,20.498,1.903c6.646,1.271,12.563,3.492,17.753,6.665c5.189,3.175,9.37,7.431,12.545,12.769
		C175.962,878.782,177.549,885.483,177.549,893.549z"/>
	<path fill="#FFFFFF" d="M183.037,1169.27c0,6.721-1.215,13.032-3.641,18.93c-2.427,5.9-5.88,11.033-10.361,15.401
		c-4.48,4.368-9.876,7.804-16.185,10.305c-6.311,2.501-13.312,3.753-21.001,3.753c-8.065,0-15.197-1.288-21.394-3.865
		c-6.199-2.576-11.388-6.533-15.569-11.872c-4.183-5.338-7.355-12.078-9.521-20.218c-2.167-8.139-3.248-17.771-3.248-28.898
		c0-7.466,0.484-14.71,1.456-21.729c0.969-7.019,2.576-13.627,4.816-19.826c2.24-6.197,5.226-11.873,8.96-17.025
		c3.733-5.152,8.381-9.576,13.945-13.272c5.562-3.696,12.114-6.57,19.657-8.625c7.542-2.053,16.278-3.08,26.21-3.08h14.449v17.025
		h-15.682c-8.736,0-16.316,1.046-22.738,3.136c-6.423,2.092-11.799,5.041-16.129,8.849c-4.332,3.809-7.655,8.401-9.969,13.777
		c-2.315,5.377-3.771,11.389-4.368,18.033l-0.448,4.593c4.705-2.762,10.137-4.984,16.297-6.665c6.161-1.68,12.825-2.52,19.994-2.52
		c7.393,0,13.87,1.083,19.434,3.248c5.562,2.167,10.193,5.172,13.889,9.017c3.696,3.847,6.477,8.457,8.345,13.833
		C182.103,1156.949,183.037,1162.849,183.037,1169.27z M162.652,1170.502c0-4.48-0.542-8.53-1.624-12.153
		c-1.083-3.621-2.783-6.682-5.097-9.185c-2.315-2.501-5.247-4.441-8.792-5.824c-3.547-1.381-7.785-2.072-12.713-2.072
		c-2.839,0-5.712,0.263-8.625,0.784c-2.912,0.523-5.769,1.251-8.568,2.185c-2.8,0.935-5.471,1.998-8.009,3.191
		c-2.54,1.195-4.855,2.465-6.945,3.809c0,9.633,0.672,17.68,2.017,24.138c1.344,6.46,3.341,11.632,5.992,15.514
		c2.65,3.884,5.917,6.646,9.801,8.289c3.882,1.643,8.362,2.464,13.441,2.464c4.256,0,8.157-0.689,11.705-2.072
		c3.546-1.381,6.608-3.416,9.185-6.104c2.576-2.688,4.592-5.954,6.048-9.801C161.924,1179.818,162.652,1175.431,162.652,1170.502z"
		/>
</g>
<g>
	<path fill="#FFFFFF" d="M601.717,355.084h-24.978l-4.144,41.107h-16.577l4.144-41.107h-28.562l-4.144,41.107h-16.577l4.144-41.107
		h-23.858v-14.561h25.314l4.032-39.203h-23.634v-14.561h25.09l3.808-36.963h16.353l-3.696,36.963h28.674l3.808-36.963h16.577
		l-3.92,36.963h24.082v14.561h-25.538l-3.92,39.203h23.522V355.084z M561.73,340.522l3.92-39.203h-28.674l-3.92,39.203H561.73z"/>
	<path fill="#FFFFFF" d="M855.081,266.82h-43.347v129.37h-20.162V266.82h-43.347v-17.025h106.857V266.82z"/>
	<path fill="#FFFFFF" d="M973.027,396.191h-19.49v-71.798c0-8.662-1.624-15.14-4.872-19.434c-3.248-4.294-7.897-6.441-13.945-6.441
		c-2.614,0-5.059,0.355-7.337,1.064c-2.278,0.709-4.648,1.941-7.113,3.696c-2.464,1.755-5.152,4.126-8.065,7.113
		s-6.272,6.721-10.081,11.201v74.598h-19.49V237.922h19.49v45.812l-0.672,17.697c3.062-3.659,6.067-6.739,9.017-9.241
		c2.95-2.502,5.899-4.536,8.849-6.104c2.95-1.568,5.955-2.688,9.017-3.36c3.062-0.672,6.235-1.008,9.521-1.008
		c11.201,0,19.863,3.416,25.986,10.249c6.123,6.833,9.185,17.119,9.185,30.858V396.191z"/>
	<path fill="#FFFFFF" d="M1047.065,299.863h-33.267v-16.129h52.98v96.216h33.491v16.241h-90.167V379.95h36.963V299.863z
		 M1053.897,236.578c2.166,0,4.182,0.392,6.048,1.176c1.867,0.784,3.491,1.885,4.872,3.304c1.381,1.419,2.464,3.043,3.248,4.872
		c0.784,1.829,1.176,3.827,1.176,5.992c0,2.091-0.392,4.07-1.176,5.936c-0.784,1.867-1.867,3.51-3.248,4.928
		c-1.381,1.419-3.006,2.52-4.872,3.304c-1.867,0.784-3.883,1.176-6.048,1.176s-4.182-0.392-6.048-1.176
		c-1.867-0.784-3.491-1.885-4.872-3.304c-1.381-1.419-2.464-3.062-3.248-4.928c-0.784-1.867-1.176-3.846-1.176-5.936
		c0-2.166,0.392-4.163,1.176-5.992c0.784-1.829,1.867-3.454,3.248-4.872c1.381-1.419,3.006-2.52,4.872-3.304
		C1049.715,236.97,1051.732,236.578,1053.897,236.578z"/>
	<path fill="#FFFFFF" d="M1223.927,365.5c0,3.958-0.672,7.505-2.016,10.641s-3.174,5.918-5.489,8.345
		c-2.315,2.427-5.003,4.499-8.065,6.216c-3.062,1.717-6.328,3.136-9.801,4.256s-7.038,1.941-10.697,2.464s-7.243,0.784-10.753,0.784
		c-7.617,0-14.617-0.336-21.002-1.008s-12.638-1.755-18.761-3.248v-17.921c6.571,1.867,13.105,3.286,19.602,4.256
		c6.496,0.971,12.956,1.456,19.378,1.456c9.334,0,16.241-1.269,20.722-3.808s6.72-6.16,6.72-10.865c0-2.016-0.355-3.827-1.064-5.432
		c-0.709-1.605-1.997-3.136-3.864-4.592s-4.76-2.968-8.681-4.536c-3.92-1.568-9.278-3.36-16.073-5.376
		c-5.078-1.493-9.763-3.192-14.057-5.096c-4.294-1.904-8.009-4.163-11.145-6.777c-3.136-2.614-5.6-5.675-7.393-9.185
		c-1.792-3.51-2.688-7.654-2.688-12.433c0-3.136,0.728-6.571,2.184-10.305c1.456-3.734,3.939-7.206,7.449-10.417
		c3.51-3.211,8.251-5.88,14.225-8.009c5.974-2.128,13.441-3.192,22.402-3.192c4.406,0,9.297,0.243,14.673,0.728
		c5.376,0.485,10.977,1.325,16.801,2.52v17.361c-6.123-1.493-11.929-2.595-17.417-3.304c-5.489-0.709-10.249-1.064-14.281-1.064
		c-4.854,0-8.942,0.373-12.265,1.12c-3.323,0.747-6.011,1.773-8.065,3.08c-2.053,1.307-3.528,2.838-4.424,4.592
		c-0.896,1.755-1.344,3.64-1.344,5.656c0,2.016,0.392,3.846,1.176,5.488c0.784,1.643,2.24,3.23,4.368,4.76
		c2.128,1.531,5.096,3.062,8.905,4.592c3.808,1.531,8.774,3.192,14.897,4.984c6.646,1.941,12.246,3.976,16.801,6.104
		s8.251,4.499,11.089,7.113c2.838,2.614,4.872,5.563,6.104,8.849C1223.311,357.585,1223.927,361.319,1223.927,365.5z"/>
	<path fill="#FFFFFF" d="M1425.431,299.863h-33.267v-16.129h52.98v96.216h33.491v16.241h-90.167V379.95h36.963V299.863z
		 M1432.263,236.578c2.166,0,4.182,0.392,6.048,1.176c1.867,0.784,3.491,1.885,4.872,3.304c1.381,1.419,2.464,3.043,3.248,4.872
		c0.784,1.829,1.176,3.827,1.176,5.992c0,2.091-0.392,4.07-1.176,5.936c-0.784,1.867-1.867,3.51-3.248,4.928
		c-1.381,1.419-3.006,2.52-4.872,3.304c-1.867,0.784-3.883,1.176-6.048,1.176s-4.182-0.392-6.048-1.176
		c-1.867-0.784-3.491-1.885-4.872-3.304c-1.381-1.419-2.464-3.062-3.248-4.928c-0.784-1.867-1.176-3.846-1.176-5.936
		c0-2.166,0.392-4.163,1.176-5.992c0.784-1.829,1.867-3.454,3.248-4.872c1.381-1.419,3.006-2.52,4.872-3.304
		C1428.082,236.97,1430.098,236.578,1432.263,236.578z"/>
	<path fill="#FFFFFF" d="M1602.293,365.5c0,3.958-0.672,7.505-2.016,10.641s-3.174,5.918-5.488,8.345
		c-2.315,2.427-5.003,4.499-8.065,6.216s-6.328,3.136-9.801,4.256s-7.038,1.941-10.697,2.464s-7.243,0.784-10.753,0.784
		c-7.617,0-14.617-0.336-21.002-1.008s-12.638-1.755-18.761-3.248v-17.921c6.571,1.867,13.105,3.286,19.602,4.256
		c6.496,0.971,12.956,1.456,19.378,1.456c9.334,0,16.241-1.269,20.722-3.808s6.72-6.16,6.72-10.865c0-2.016-0.355-3.827-1.064-5.432
		c-0.709-1.605-1.997-3.136-3.864-4.592s-4.76-2.968-8.681-4.536c-3.92-1.568-9.278-3.36-16.073-5.376
		c-5.078-1.493-9.763-3.192-14.057-5.096c-4.294-1.904-8.009-4.163-11.145-6.777c-3.136-2.614-5.6-5.675-7.393-9.185
		c-1.792-3.51-2.688-7.654-2.688-12.433c0-3.136,0.728-6.571,2.184-10.305c1.456-3.734,3.939-7.206,7.449-10.417
		c3.51-3.211,8.251-5.88,14.225-8.009c5.974-2.128,13.441-3.192,22.402-3.192c4.406,0,9.297,0.243,14.673,0.728
		c5.376,0.485,10.977,1.325,16.801,2.52v17.361c-6.123-1.493-11.929-2.595-17.417-3.304c-5.488-0.709-10.249-1.064-14.281-1.064
		c-4.854,0-8.942,0.373-12.265,1.12c-3.323,0.747-6.011,1.773-8.065,3.08c-2.053,1.307-3.528,2.838-4.424,4.592
		c-0.896,1.755-1.344,3.64-1.344,5.656c0,2.016,0.392,3.846,1.176,5.488c0.784,1.643,2.24,3.23,4.368,4.76
		c2.128,1.531,5.096,3.062,8.905,4.592c3.808,1.531,8.774,3.192,14.897,4.984c6.646,1.941,12.246,3.976,16.801,6.104
		s8.251,4.499,11.089,7.113c2.838,2.614,4.872,5.563,6.104,8.849C1601.677,357.585,1602.293,361.319,1602.293,365.5z"/>
	<path fill="#FFFFFF" d="M1837.736,396.191l-0.448-15.121c-6.123,6.048-12.34,10.417-18.649,13.105
		c-6.31,2.688-12.937,4.032-19.882,4.032c-6.422,0-11.91-0.821-16.465-2.464s-8.307-3.902-11.257-6.777
		c-2.95-2.875-5.115-6.254-6.496-10.137c-1.381-3.883-2.072-8.102-2.072-12.657c0-11.276,4.2-20.106,12.601-26.49
		c8.401-6.384,20.815-9.577,37.243-9.577h23.298v-9.857c0-6.646-2.128-11.966-6.385-15.961c-4.256-3.995-10.753-5.992-19.49-5.992
		c-6.347,0-12.601,0.709-18.761,2.128c-6.161,1.419-12.526,3.435-19.098,6.048v-17.585c2.464-0.896,5.208-1.773,8.233-2.632
		c3.024-0.859,6.217-1.624,9.577-2.296s6.87-1.213,10.529-1.624s7.355-0.616,11.089-0.616c6.795,0,12.918,0.747,18.37,2.24
		c5.451,1.493,10.062,3.771,13.833,6.833c3.771,3.062,6.665,6.907,8.681,11.537s3.024,10.081,3.024,16.353v77.51H1837.736z
		 M1835.608,345.003h-24.754c-4.854,0-9.035,0.485-12.545,1.456c-3.51,0.971-6.384,2.352-8.625,4.144s-3.902,3.939-4.984,6.44
		c-1.083,2.502-1.624,5.32-1.624,8.457c0,2.165,0.336,4.238,1.008,6.216c0.672,1.979,1.755,3.734,3.248,5.264
		c1.493,1.531,3.435,2.744,5.824,3.64c2.39,0.896,5.302,1.344,8.737,1.344c4.48,0,9.614-1.363,15.401-4.088
		s11.892-7.038,18.313-12.937V345.003z"/>
	<path fill="#FFFFFF" d="M2108.349,394.623c-4.406,1.12-8.961,1.923-13.665,2.408c-4.704,0.485-9.483,0.728-14.337,0.728
		c-14.113,0-24.642-3.192-31.587-9.577c-6.945-6.384-10.417-16.185-10.417-29.402v-58.693h-31.475v-16.353h31.475v-30.914
		l19.49-5.04v35.955h50.516v16.353h-50.516v57.125c0,8.065,2.147,14.094,6.44,18.089c4.294,3.995,10.622,5.992,18.986,5.992
		c3.584,0,7.505-0.28,11.761-0.84s8.699-1.437,13.329-2.632V394.623z"/>
	<path fill="#FFFFFF" d="M2238.84,334.026c0,2.763-0.037,5.078-0.112,6.945c-0.075,1.867-0.187,3.622-0.336,5.264h-78.966
		c0,11.5,3.211,20.33,9.633,26.49s15.681,9.241,27.778,9.241c3.285,0,6.571-0.131,9.857-0.392s6.459-0.616,9.521-1.064
		s5.992-0.952,8.793-1.512s5.395-1.176,7.785-1.848v16.017c-5.302,1.493-11.294,2.707-17.978,3.64
		c-6.683,0.933-13.609,1.4-20.778,1.4c-9.633,0-17.921-1.307-24.866-3.92c-6.945-2.614-12.638-6.403-17.081-11.369
		c-4.443-4.966-7.729-11.052-9.857-18.257c-2.128-7.206-3.192-15.364-3.192-24.474c0-7.915,1.139-15.401,3.416-22.458
		c2.278-7.057,5.6-13.254,9.969-18.593c4.368-5.339,9.726-9.577,16.073-12.713c6.347-3.136,13.553-4.704,21.618-4.704
		c7.841,0,14.785,1.232,20.834,3.696s11.145,5.955,15.289,10.473c4.144,4.518,7.281,10.006,9.409,16.465
		C2237.776,318.811,2238.84,326.036,2238.84,334.026z M2218.566,331.226c0.224-5.003-0.261-9.577-1.456-13.721
		c-1.195-4.144-3.043-7.71-5.544-10.697c-2.501-2.987-5.619-5.32-9.353-7.001c-3.734-1.68-8.065-2.52-12.993-2.52
		c-4.256,0-8.139,0.821-11.649,2.464s-6.534,3.958-9.073,6.945c-2.539,2.987-4.592,6.571-6.16,10.753s-2.539,8.774-2.912,13.777
		H2218.566z"/>
	<path fill="#FFFFFF" d="M2359.025,365.5c0,3.958-0.672,7.505-2.016,10.641c-1.344,3.136-3.174,5.918-5.488,8.345
		c-2.315,2.427-5.003,4.499-8.065,6.216s-6.329,3.136-9.801,4.256s-7.038,1.941-10.697,2.464s-7.243,0.784-10.753,0.784
		c-7.617,0-14.617-0.336-21.002-1.008s-12.638-1.755-18.761-3.248v-17.921c6.571,1.867,13.105,3.286,19.602,4.256
		c6.497,0.971,12.956,1.456,19.377,1.456c9.334,0,16.241-1.269,20.722-3.808c4.48-2.539,6.721-6.16,6.721-10.865
		c0-2.016-0.355-3.827-1.064-5.432c-0.709-1.605-1.998-3.136-3.864-4.592s-4.76-2.968-8.681-4.536
		c-3.92-1.568-9.278-3.36-16.073-5.376c-5.078-1.493-9.763-3.192-14.057-5.096s-8.009-4.163-11.145-6.777
		c-3.136-2.614-5.6-5.675-7.393-9.185c-1.792-3.51-2.688-7.654-2.688-12.433c0-3.136,0.728-6.571,2.184-10.305
		c1.456-3.734,3.939-7.206,7.448-10.417c3.51-3.211,8.251-5.88,14.225-8.009c5.974-2.128,13.441-3.192,22.402-3.192
		c4.406,0,9.297,0.243,14.673,0.728c5.376,0.485,10.977,1.325,16.802,2.52v17.361c-6.123-1.493-11.929-2.595-17.417-3.304
		c-5.489-0.709-10.249-1.064-14.281-1.064c-4.854,0-8.942,0.373-12.265,1.12c-3.323,0.747-6.011,1.773-8.065,3.08
		s-3.528,2.838-4.424,4.592c-0.896,1.755-1.344,3.64-1.344,5.656c0,2.016,0.392,3.846,1.176,5.488c0.784,1.643,2.24,3.23,4.368,4.76
		c2.128,1.531,5.096,3.062,8.905,4.592c3.808,1.531,8.774,3.192,14.897,4.984c6.646,1.941,12.246,3.976,16.802,6.104
		c4.555,2.128,8.251,4.499,11.089,7.113c2.837,2.614,4.872,5.563,6.104,8.849C2358.409,357.585,2359.025,361.319,2359.025,365.5z"/>
	<path fill="#FFFFFF" d="M2486.716,394.623c-4.406,1.12-8.961,1.923-13.665,2.408c-4.704,0.485-9.483,0.728-14.337,0.728
		c-14.113,0-24.642-3.192-31.587-9.577c-6.945-6.384-10.417-16.185-10.417-29.402v-58.693h-31.475v-16.353h31.475v-30.914
		l19.49-5.04v35.955h50.516v16.353h-50.516v57.125c0,8.065,2.147,14.094,6.44,18.089c4.294,3.995,10.622,5.992,18.986,5.992
		c3.584,0,7.505-0.28,11.761-0.84s8.699-1.437,13.329-2.632V394.623z"/>
</g>
<g>
	<path fill="#FFFFFF" d="M609.479,664.773c-5.078,1.941-10.286,3.379-15.625,4.312s-10.846,1.4-16.521,1.4
		c-17.772,0-31.456-4.816-41.051-14.449c-9.595-9.633-14.393-23.709-14.393-42.227c0-8.886,1.381-16.951,4.144-24.194
		s6.646-13.441,11.649-18.594s10.977-9.129,17.921-11.929c6.945-2.8,14.598-4.2,22.962-4.2c5.824,0,11.276,0.411,16.353,1.232
		s9.931,2.165,14.561,4.032v18.594c-4.854-2.539-9.801-4.387-14.841-5.544s-10.249-1.736-15.625-1.736
		c-5.003,0-9.726,0.952-14.169,2.856c-4.443,1.904-8.345,4.648-11.705,8.233c-3.36,3.584-6.011,7.953-7.953,13.105
		c-1.941,5.152-2.912,10.977-2.912,17.473c0,13.59,3.304,23.765,9.913,30.522c6.609,6.758,15.775,10.137,27.498,10.137
		c5.302,0,10.435-0.597,15.401-1.792c4.966-1.195,9.763-2.987,14.393-5.376V664.773z"/>
	<path fill="#FFFFFF" d="M746.13,611.793c0,8.737-1.232,16.745-3.696,24.026c-2.464,7.281-6.011,13.516-10.641,18.706
		s-10.268,9.222-16.913,12.097c-6.646,2.875-14.188,4.312-22.626,4.312c-8.065,0-15.289-1.251-21.674-3.752
		c-6.385-2.502-11.798-6.179-16.241-11.033c-4.443-4.854-7.841-10.865-10.193-18.033c-2.352-7.169-3.528-15.42-3.528-24.754
		c0-8.737,1.232-16.708,3.696-23.914c2.464-7.206,6.011-13.404,10.641-18.593c4.63-5.19,10.267-9.222,16.913-12.097
		s14.188-4.312,22.626-4.312c8.065,0,15.289,1.251,21.674,3.752c6.384,2.502,11.798,6.161,16.241,10.977
		c4.443,4.816,7.841,10.809,10.193,17.977C744.954,594.32,746.13,602.534,746.13,611.793z M726.193,612.689
		c0-6.945-0.765-13.012-2.296-18.201c-1.531-5.19-3.715-9.521-6.552-12.993c-2.838-3.472-6.291-6.086-10.361-7.841
		c-4.07-1.755-8.606-2.632-13.609-2.632c-5.824,0-10.809,1.139-14.953,3.416c-4.144,2.278-7.542,5.32-10.193,9.129
		c-2.651,3.808-4.592,8.233-5.825,13.273c-1.232,5.04-1.848,10.323-1.848,15.849c0,6.945,0.765,13.03,2.296,18.257
		c1.531,5.227,3.715,9.577,6.553,13.049c2.838,3.472,6.272,6.086,10.305,7.841c4.032,1.755,8.587,2.632,13.665,2.632
		c5.824,0,10.809-1.139,14.953-3.416s7.542-5.32,10.193-9.129s4.592-8.233,5.824-13.273S726.193,618.29,726.193,612.689z"/>
	<path fill="#FFFFFF" d="M864.748,668.918h-17.473l-0.672-18.145c-3.36,3.883-6.552,7.113-9.577,9.689
		c-3.024,2.576-6.03,4.648-9.017,6.216c-2.987,1.568-5.992,2.67-9.017,3.304c-3.024,0.635-6.217,0.952-9.577,0.952
		c-11.574,0-20.311-3.398-26.21-10.193c-5.899-6.795-8.849-17.063-8.849-30.802v-73.478h19.49v71.91
		c0,17.249,6.497,25.874,19.49,25.874c2.39,0,4.723-0.355,7.001-1.064c2.278-0.709,4.667-1.941,7.169-3.696s5.19-4.126,8.065-7.113
		c2.875-2.987,6.104-6.758,9.689-11.313v-74.598h19.49V668.918z"/>
	<path fill="#FFFFFF" d="M900.478,556.461h17.361l0.784,18.145c3.286-3.883,6.459-7.113,9.521-9.689
		c3.062-2.576,6.067-4.648,9.017-6.216c2.95-1.568,5.955-2.67,9.017-3.304c3.062-0.635,6.235-0.952,9.521-0.952
		c11.574,0,20.33,3.416,26.266,10.249c5.937,6.833,8.905,17.119,8.905,30.858v73.366h-19.49V597.12
		c0-8.811-1.643-15.327-4.928-19.546c-3.286-4.219-8.177-6.328-14.673-6.328c-2.39,0-4.723,0.355-7.001,1.064
		c-2.278,0.709-4.648,1.941-7.113,3.696c-2.464,1.755-5.134,4.126-8.009,7.113c-2.875,2.987-6.104,6.721-9.689,11.201v74.598h-19.49
		V556.461z"/>
	<path fill="#FFFFFF" d="M1117.216,667.35c-4.406,1.12-8.961,1.923-13.665,2.408s-9.483,0.728-14.337,0.728
		c-14.113,0-24.642-3.192-31.587-9.577s-10.417-16.185-10.417-29.402v-58.693h-31.474v-16.353h31.474v-30.914l19.49-5.04v35.955
		h50.516v16.353H1066.7v57.125c0,8.065,2.147,14.094,6.441,18.089c4.294,3.995,10.622,5.992,18.985,5.992
		c3.584,0,7.505-0.28,11.761-0.84s8.699-1.437,13.329-2.632V667.35z"/>
	<path fill="#FFFFFF" d="M1260.923,714.841h-126.122v-16.129h126.122V714.841z"/>
	<path fill="#FFFFFF" d="M1369.46,667.35c-4.406,1.12-8.961,1.923-13.665,2.408s-9.483,0.728-14.337,0.728
		c-14.113,0-24.642-3.192-31.587-9.577s-10.417-16.185-10.417-29.402v-58.693h-31.475v-16.353h31.475v-30.914l19.49-5.04v35.955
		h50.516v16.353h-50.516v57.125c0,8.065,2.147,14.094,6.441,18.089c4.294,3.995,10.622,5.992,18.985,5.992
		c3.584,0,7.505-0.28,11.761-0.84s8.699-1.437,13.329-2.632V667.35z"/>
	<path fill="#FFFFFF" d="M1502.863,611.793c0,8.737-1.232,16.745-3.696,24.026c-2.464,7.281-6.011,13.516-10.641,18.706
		c-4.63,5.19-10.267,9.222-16.913,12.097c-6.646,2.875-14.188,4.312-22.626,4.312c-8.065,0-15.289-1.251-21.674-3.752
		c-6.385-2.502-11.798-6.179-16.241-11.033c-4.443-4.854-7.841-10.865-10.193-18.033s-3.528-15.42-3.528-24.754
		c0-8.737,1.232-16.708,3.696-23.914c2.464-7.206,6.011-13.404,10.641-18.593c4.63-5.19,10.267-9.222,16.913-12.097
		s14.188-4.312,22.626-4.312c8.065,0,15.289,1.251,21.674,3.752s11.798,6.161,16.241,10.977c4.443,4.816,7.841,10.809,10.193,17.977
		C1501.686,594.32,1502.863,602.534,1502.863,611.793z M1482.925,612.689c0-6.945-0.765-13.012-2.296-18.201
		s-3.715-9.521-6.553-12.993c-2.838-3.472-6.291-6.086-10.361-7.841c-4.07-1.755-8.606-2.632-13.609-2.632
		c-5.824,0-10.809,1.139-14.953,3.416c-4.144,2.278-7.542,5.32-10.193,9.129c-2.651,3.808-4.592,8.233-5.824,13.273
		c-1.232,5.04-1.848,10.323-1.848,15.849c0,6.945,0.765,13.03,2.296,18.257s3.715,9.577,6.552,13.049
		c2.838,3.472,6.273,6.086,10.305,7.841c4.032,1.755,8.587,2.632,13.665,2.632c5.824,0,10.809-1.139,14.953-3.416
		c4.144-2.278,7.542-5.32,10.193-9.129s4.592-8.233,5.824-13.273S1482.925,618.29,1482.925,612.689z"/>
	<path fill="#FFFFFF" d="M1750.514,596.56h-96.328v-16.465h96.328V596.56z M1750.514,635.539h-96.328v-16.465h96.328V635.539z"/>
	<path fill="#AB7C3E" d="M2004.439,668.918h-96.44v-17.473l37.859-37.635c6.198-6.123,11.238-11.425,15.121-15.905
		c3.883-4.48,6.907-8.569,9.073-12.265c2.165-3.696,3.622-7.187,4.368-10.473s1.12-6.833,1.12-10.641
		c0-3.584-0.485-7.001-1.456-10.249c-0.971-3.248-2.464-6.104-4.48-8.569c-2.016-2.464-4.63-4.406-7.841-5.824
		c-3.211-1.419-7.057-2.128-11.537-2.128c-6.198,0-11.836,1.381-16.913,4.144s-9.745,6.347-14.001,10.753l-10.753-12.881
		c5.526-5.824,11.892-10.492,19.098-14.001c7.206-3.51,15.588-5.264,25.146-5.264c6.496,0,12.414,0.971,17.753,2.912
		c5.339,1.941,9.95,4.742,13.833,8.401c3.883,3.659,6.889,8.139,9.017,13.441c2.128,5.302,3.192,11.276,3.192,17.921
		c0,5.6-0.747,10.79-2.24,15.569s-3.752,9.539-6.776,14.281c-3.024,4.742-6.833,9.651-11.425,14.729
		c-4.592,5.078-10.025,10.641-16.297,16.689l-26.546,25.874h71.126V668.918z"/>
	<path fill="#AB7C3E" d="M2127.76,624.45c0,6.422-1.307,12.452-3.92,18.089c-2.614,5.638-6.534,10.566-11.761,14.785
		s-11.798,7.542-19.713,9.969c-7.916,2.427-17.137,3.64-27.666,3.64c-5.824,0-11.052-0.187-15.681-0.56
		c-4.63-0.373-8.961-0.859-12.993-1.456v-17.473c4.63,0.821,9.521,1.456,14.673,1.904c5.152,0.448,10.417,0.672,15.793,0.672
		c7.318,0,13.572-0.653,18.761-1.96c5.19-1.307,9.427-3.192,12.713-5.656c3.286-2.464,5.675-5.451,7.168-8.961
		c1.494-3.51,2.24-7.467,2.24-11.873c0-4.032-0.896-7.542-2.688-10.529c-1.792-2.987-4.312-5.488-7.561-7.505
		c-3.248-2.016-7.131-3.528-11.649-4.536c-4.518-1.008-9.465-1.512-14.841-1.512h-16.689v-16.017h16.913
		c4.406,0,8.419-0.579,12.041-1.736c3.622-1.157,6.72-2.819,9.297-4.984s4.555-4.835,5.937-8.009
		c1.382-3.174,2.072-6.776,2.072-10.809c0-7.841-2.39-13.553-7.169-17.137s-11.798-5.376-21.058-5.376
		c-4.928,0-10.006,0.485-15.233,1.456s-10.828,2.427-16.801,4.368v-17.025c2.539-0.896,5.246-1.699,8.121-2.408
		c2.875-0.709,5.75-1.307,8.625-1.792c2.875-0.485,5.731-0.859,8.569-1.12c2.837-0.261,5.563-0.392,8.177-0.392
		c7.766,0,14.599,0.84,20.498,2.52c5.899,1.68,10.827,4.088,14.785,7.225c3.958,3.136,6.945,6.945,8.961,11.425
		s3.024,9.521,3.024,15.121c0,8.363-2.147,15.383-6.44,21.058s-10.174,10.193-17.642,13.553c3.808,0.597,7.561,1.792,11.257,3.584
		c3.696,1.792,7.019,4.088,9.969,6.889s5.339,6.104,7.168,9.913C2126.846,615.601,2127.76,619.82,2127.76,624.45z"/>
	<path fill="#FFFFFF" d="M2386.613,616.385h-44.02v45.7h-19.265v-45.7h-44.02V599.36h44.02v-45.364h19.265v45.364h44.02V616.385z"/>
</g>
<g>
	<path fill="#FFFFFF" d="M625.862,1148.473c0,10.006-1.4,18.743-4.2,26.21c-2.8,7.467-6.665,13.665-11.593,18.594
		s-10.753,8.625-17.473,11.089s-14.001,3.696-21.842,3.696c-3.584,0-7.15-0.187-10.697-0.56c-3.547-0.373-7.15-1.008-10.809-1.904
		v47.044h-19.49V1094.26h17.361l1.232,18.818c5.6-7.691,11.574-13.086,17.921-16.185c6.347-3.099,13.217-4.648,20.61-4.648
		c6.422,0,12.06,1.344,16.913,4.032c4.854,2.688,8.923,6.478,12.209,11.369c3.286,4.891,5.75,10.79,7.393,17.697
		C625.041,1132.25,625.862,1139.96,625.862,1148.473z M605.925,1149.369c0-5.899-0.429-11.313-1.288-16.241
		c-0.859-4.928-2.221-9.147-4.088-12.657c-1.867-3.51-4.256-6.254-7.169-8.233c-2.912-1.979-6.385-2.968-10.417-2.968
		c-2.464,0-4.966,0.392-7.505,1.176c-2.539,0.784-5.171,2.091-7.897,3.92s-5.6,4.256-8.625,7.281
		c-3.024,3.024-6.254,6.777-9.689,11.257v54.548c3.584,1.493,7.355,2.67,11.313,3.528c3.958,0.859,7.841,1.288,11.649,1.288
		c10.529,0,18.78-3.566,24.754-10.697S605.925,1163.706,605.925,1149.369z"/>
	<path fill="#FFFFFF" d="M660.473,1094.26h17.809l0.56,20.722c6.646-7.99,13.198-13.777,19.658-17.361
		c6.459-3.584,12.974-5.376,19.546-5.376c11.649,0,20.479,3.771,26.49,11.313c6.011,7.542,8.793,18.743,8.345,33.603h-19.714
		c0.224-9.857-1.213-17.007-4.312-21.45c-3.099-4.443-7.635-6.665-13.609-6.665c-2.614,0-5.246,0.467-7.897,1.4
		c-2.651,0.933-5.376,2.427-8.177,4.48c-2.8,2.053-5.768,4.686-8.905,7.897c-3.136,3.211-6.497,7.094-10.081,11.649v72.246h-19.714
		V1094.26z"/>
	<path fill="#FFFFFF" d="M820.31,1110.39h-33.267v-16.129h52.98v96.216h33.491v16.241h-90.167v-16.241h36.963V1110.39z
		 M827.142,1047.105c2.165,0,4.182,0.392,6.048,1.176s3.491,1.885,4.872,3.304c1.381,1.419,2.464,3.043,3.248,4.872
		s1.176,3.827,1.176,5.993c0,2.091-0.392,4.07-1.176,5.936s-1.867,3.51-3.248,4.928c-1.381,1.419-3.006,2.52-4.872,3.304
		s-3.883,1.176-6.048,1.176c-2.166,0-4.182-0.392-6.049-1.176s-3.491-1.885-4.872-3.304c-1.381-1.419-2.464-3.062-3.248-4.928
		c-0.784-1.867-1.176-3.846-1.176-5.936c0-2.166,0.392-4.163,1.176-5.993c0.784-1.829,1.867-3.454,3.248-4.872
		c1.381-1.419,3.006-2.52,4.872-3.304S824.977,1047.105,827.142,1047.105z"/>
	<path fill="#FFFFFF" d="M908.125,1094.26h17.361l0.784,18.145c3.286-3.883,6.459-7.113,9.521-9.689
		c3.062-2.576,6.067-4.648,9.017-6.217c2.95-1.568,5.955-2.67,9.017-3.304c3.062-0.635,6.235-0.952,9.521-0.952
		c11.574,0,20.33,3.416,26.266,10.249c5.937,6.833,8.905,17.119,8.905,30.858v73.366h-19.49v-71.798
		c0-8.811-1.643-15.327-4.928-19.546c-3.286-4.219-8.177-6.328-14.673-6.328c-2.39,0-4.723,0.355-7.001,1.064
		c-2.278,0.709-4.648,1.941-7.113,3.696c-2.464,1.755-5.134,4.126-8.009,7.113s-6.104,6.721-9.689,11.201v74.598h-19.49V1094.26z"/>
	<path fill="#FFFFFF" d="M1124.862,1205.149c-4.406,1.12-8.961,1.923-13.665,2.408s-9.483,0.728-14.337,0.728
		c-14.113,0-24.642-3.192-31.587-9.577c-6.945-6.384-10.417-16.185-10.417-29.402v-58.693h-31.474v-16.353h31.474v-30.915
		l19.49-5.04v35.955h50.516v16.353h-50.516v57.125c0,8.065,2.147,14.094,6.441,18.089c4.294,3.995,10.622,5.992,18.985,5.992
		c3.584,0,7.505-0.28,11.761-0.84c4.256-0.56,8.699-1.438,13.329-2.632V1205.149z"/>
	<path fill="#FFFFFF" d="M1373.858,1202.573c-5.078,1.942-10.286,3.379-15.625,4.312c-5.339,0.933-10.846,1.4-16.521,1.4
		c-17.772,0-31.456-4.816-41.051-14.449c-9.595-9.633-14.393-23.709-14.393-42.227c0-8.886,1.381-16.951,4.144-24.194
		c2.763-7.243,6.646-13.441,11.649-18.594c5.003-5.152,10.977-9.129,17.922-11.929c6.945-2.8,14.599-4.2,22.962-4.2
		c5.824,0,11.276,0.411,16.353,1.232c5.078,0.821,9.932,2.166,14.561,4.032v18.594c-4.854-2.539-9.801-4.387-14.841-5.545
		c-5.04-1.157-10.249-1.736-15.625-1.736c-5.003,0-9.726,0.952-14.169,2.856s-8.345,4.648-11.705,8.233
		c-3.36,3.584-6.011,7.953-7.953,13.105c-1.942,5.152-2.912,10.977-2.912,17.473c0,13.59,3.304,23.765,9.913,30.522
		c6.609,6.758,15.775,10.137,27.498,10.137c5.302,0,10.436-0.597,15.401-1.792c4.966-1.195,9.763-2.987,14.393-5.376V1202.573z"/>
	<path fill="#FFFFFF" d="M1510.509,1149.593c0,8.737-1.232,16.745-3.696,24.026c-2.464,7.281-6.011,13.516-10.641,18.706
		c-4.63,5.19-10.267,9.222-16.913,12.097s-14.188,4.312-22.626,4.312c-8.065,0-15.289-1.251-21.674-3.752
		c-6.385-2.502-11.798-6.179-16.241-11.033c-4.443-4.854-7.841-10.865-10.193-18.033c-2.352-7.168-3.528-15.42-3.528-24.754
		c0-8.737,1.232-16.708,3.696-23.914s6.011-13.404,10.641-18.594c4.63-5.19,10.267-9.222,16.913-12.097s14.188-4.312,22.626-4.312
		c8.065,0,15.289,1.251,21.674,3.752c6.385,2.502,11.798,6.161,16.241,10.977c4.443,4.816,7.841,10.809,10.193,17.977
		S1510.509,1140.333,1510.509,1149.593z M1490.571,1150.489c0-6.944-0.765-13.012-2.296-18.201
		c-1.531-5.19-3.715-9.521-6.553-12.993c-2.838-3.472-6.291-6.086-10.361-7.841c-4.07-1.755-8.606-2.632-13.609-2.632
		c-5.824,0-10.809,1.139-14.953,3.416c-4.144,2.277-7.542,5.32-10.193,9.129c-2.651,3.808-4.592,8.233-5.824,13.273
		c-1.232,5.04-1.848,10.323-1.848,15.849c0,6.945,0.765,13.03,2.296,18.258c1.531,5.227,3.715,9.577,6.552,13.049
		c2.838,3.472,6.273,6.086,10.305,7.841c4.032,1.755,8.587,2.632,13.665,2.632c5.824,0,10.809-1.139,14.953-3.416
		c4.144-2.278,7.542-5.32,10.193-9.129s4.592-8.233,5.824-13.273S1490.571,1156.089,1490.571,1150.489z"/>
	<path fill="#FFFFFF" d="M1629.126,1206.717h-17.473l-0.672-18.145c-3.36,3.883-6.553,7.113-9.577,9.689
		c-3.024,2.576-6.03,4.648-9.017,6.217s-5.993,2.67-9.017,3.304c-3.024,0.635-6.217,0.952-9.577,0.952
		c-11.574,0-20.311-3.398-26.21-10.193s-8.849-17.063-8.849-30.802v-73.478h19.49v71.91c0,17.249,6.496,25.874,19.49,25.874
		c2.39,0,4.723-0.355,7.001-1.064c2.277-0.709,4.667-1.942,7.169-3.696c2.501-1.755,5.19-4.126,8.065-7.113
		c2.875-2.987,6.104-6.758,9.689-11.313v-74.598h19.49V1206.717z"/>
	<path fill="#FFFFFF" d="M1664.857,1094.26h17.361l0.784,18.145c3.286-3.883,6.459-7.113,9.521-9.689
		c3.062-2.576,6.067-4.648,9.017-6.217s5.955-2.67,9.017-3.304c3.062-0.635,6.235-0.952,9.521-0.952
		c11.574,0,20.33,3.416,26.266,10.249c5.936,6.833,8.905,17.119,8.905,30.858v73.366h-19.49v-71.798
		c0-8.811-1.643-15.327-4.928-19.546c-3.286-4.219-8.177-6.328-14.673-6.328c-2.39,0-4.723,0.355-7.001,1.064
		c-2.277,0.709-4.648,1.941-7.113,3.696c-2.464,1.755-5.134,4.126-8.009,7.113s-6.104,6.721-9.689,11.201v74.598h-19.49V1094.26z"/>
	<path fill="#FFFFFF" d="M1881.595,1205.149c-4.406,1.12-8.961,1.923-13.665,2.408s-9.483,0.728-14.337,0.728
		c-14.113,0-24.642-3.192-31.587-9.577c-6.945-6.384-10.417-16.185-10.417-29.402v-58.693h-31.475v-16.353h31.475v-30.915
		l19.49-5.04v35.955h50.516v16.353h-50.516v57.125c0,8.065,2.147,14.094,6.441,18.089c4.294,3.995,10.622,5.992,18.985,5.992
		c3.584,0,7.505-0.28,11.761-0.84c4.256-0.56,8.699-1.438,13.329-2.632V1205.149z"/>
	<path fill="#FFFFFF" d="M2025.302,1252.641H1899.18v-16.129h126.122V1252.641z"/>
	<path fill="#FFFFFF" d="M2133.839,1205.149c-4.406,1.12-8.961,1.923-13.665,2.408c-4.704,0.485-9.483,0.728-14.337,0.728
		c-14.113,0-24.642-3.192-31.587-9.577c-6.945-6.384-10.417-16.185-10.417-29.402v-58.693h-31.475v-16.353h31.475v-30.915
		l19.49-5.04v35.955h50.516v16.353h-50.516v57.125c0,8.065,2.147,14.094,6.44,18.089s10.622,5.992,18.986,5.992
		c3.584,0,7.505-0.28,11.761-0.84c4.256-0.56,8.699-1.438,13.329-2.632V1205.149z"/>
	<path fill="#FFFFFF" d="M2267.241,1149.593c0,8.737-1.232,16.745-3.696,24.026c-2.464,7.281-6.011,13.516-10.641,18.706
		c-4.63,5.19-10.268,9.222-16.913,12.097c-6.646,2.875-14.188,4.312-22.626,4.312c-8.065,0-15.289-1.251-21.674-3.752
		c-6.385-2.502-11.798-6.179-16.241-11.033c-4.443-4.854-7.841-10.865-10.193-18.033c-2.352-7.168-3.528-15.42-3.528-24.754
		c0-8.737,1.232-16.708,3.696-23.914s6.011-13.404,10.641-18.594c4.63-5.19,10.268-9.222,16.913-12.097
		c6.646-2.875,14.188-4.312,22.626-4.312c8.065,0,15.289,1.251,21.674,3.752c6.385,2.502,11.798,6.161,16.241,10.977
		c4.443,4.816,7.841,10.809,10.193,17.977C2266.065,1132.12,2267.241,1140.333,2267.241,1149.593z M2247.304,1150.489
		c0-6.944-0.765-13.012-2.296-18.201c-1.531-5.19-3.715-9.521-6.552-12.993c-2.837-3.472-6.291-6.086-10.361-7.841
		c-4.07-1.755-8.606-2.632-13.609-2.632c-5.824,0-10.809,1.139-14.953,3.416c-4.144,2.277-7.542,5.32-10.193,9.129
		c-2.651,3.808-4.592,8.233-5.824,13.273c-1.232,5.04-1.848,10.323-1.848,15.849c0,6.945,0.765,13.03,2.296,18.258
		c1.531,5.227,3.715,9.577,6.552,13.049c2.837,3.472,6.272,6.086,10.305,7.841c4.032,1.755,8.587,2.632,13.665,2.632
		c5.824,0,10.809-1.139,14.953-3.416c4.144-2.278,7.542-5.32,10.193-9.129s4.592-8.233,5.824-13.273
		C2246.688,1161.41,2247.304,1156.089,2247.304,1150.489z"/>
</g>
<g>
	<path fill="#FBC448" d="M1324.276,1415.722c-303.741,0-589.574-29.264-804.842-82.403
		c-158.696-39.171-347.864-108.74-347.864-217.721s189.168-178.55,347.864-217.721c215.269-53.139,501.102-82.403,804.842-82.403
		s589.574,29.264,804.842,82.403c158.697,39.171,347.864,108.74,347.864,217.721s-189.167,178.551-347.864,217.721
		C1913.849,1386.458,1628.016,1415.722,1324.276,1415.722z M1324.276,857.844c-299.943,0-581.661,28.764-793.261,80.996
		c-196.675,48.546-314.093,114.626-314.093,176.757c0,62.132,117.419,128.211,314.093,176.757
		c211.6,52.232,493.318,80.996,793.261,80.996s581.661-28.764,793.261-80.996c196.675-48.546,314.094-114.626,314.094-176.757
		c0-62.132-117.419-128.211-314.094-176.757C1905.936,886.609,1624.218,857.844,1324.276,857.844z"/>
</g>
</svg>
